<svg width="60" height="64" viewBox="0 0 60 64" fill="none" xmlns="http://www.w3.org/2000/svg">
<path d="M0 63.3333V16.8333H20.5833V9.16667L30 0L39.4167 9.16667V30.6667H60V63.3333H0ZM5 58.3333H13.8333V49.5H5V58.3333ZM5 44.5H13.8333V35.6667H5V44.5ZM5 30.6667H13.8333V21.8333H5V30.6667ZM25.5833 58.3333H34.4167V49.5H25.5833V58.3333ZM25.5833 44.5H34.4167V35.6667H25.5833V44.5ZM25.5833 30.6667H34.4167V21.8333H25.5833V30.6667ZM25.5833 16.8333H34.4167V8H25.5833V16.8333ZM46.1667 58.3333H55V49.5H46.1667V58.3333ZM46.1667 44.5H55V35.6667H46.1667V44.5Z" fill="#F7654A"/>
</svg>
