<svg width="60" height="60" viewBox="0 0 60 60" fill="none" xmlns="http://www.w3.org/2000/svg">
<path d="M0 60V13.75H13.75V0H46.25V27.5H60V60H34.4167V46.25H25.5833V60H0ZM5 55H13.75V46.25H5V55ZM5 41.25H13.75V32.5H5V41.25ZM5 27.5H13.75V18.75H5V27.5ZM18.75 41.25H27.5V32.5H18.75V41.25ZM18.75 27.5H27.5V18.75H18.75V27.5ZM18.75 13.75H27.5V5H18.75V13.75ZM32.5 41.25H41.25V32.5H32.5V41.25ZM32.5 27.5H41.25V18.75H32.5V27.5ZM32.5 13.75H41.25V5H32.5V13.75ZM46.25 55H55V46.25H46.25V55ZM46.25 41.25H55V32.5H46.25V41.25Z" fill="#F7654A"/>
</svg>
