<svg width="60" height="54" viewBox="0 0 60 54" fill="none" xmlns="http://www.w3.org/2000/svg">
<path d="M0 54V18L24 0L42.075 13.575C41.075 13.575 40.0875 13.675 39.1125 13.875C38.1375 14.075 37.175 14.375 36.225 14.775L24 5.625L4.5 20.25V49.5H18.75V54H0ZM24 54V48.3C24 47.25 24.2625 46.2625 24.7875 45.3375C25.3125 44.4125 26.025 43.675 26.925 43.125C29.225 41.775 31.6375 40.75 34.1625 40.05C36.6875 39.35 39.3 39 42 39C44.7 39 47.3125 39.35 49.8375 40.05C52.3625 40.75 54.775 41.775 57.075 43.125C57.975 43.675 58.6875 44.4125 59.2125 45.3375C59.7375 46.2625 60 47.25 60 48.3V54H24ZM28.5 49.5H55.5V47.325C53.4 46.125 51.225 45.1875 48.975 44.5125C46.725 43.8375 44.4 43.5 42 43.5C39.6 43.5 37.275 43.85 35.025 44.55C32.775 45.25 30.6 46.2 28.5 47.4V49.5ZM42 36C39.5 36 37.375 35.125 35.625 33.375C33.875 31.625 33 29.5 33 27C33 24.5 33.875 22.375 35.625 20.625C37.375 18.875 39.5 18 42 18C44.5 18 46.625 18.875 48.375 20.625C50.125 22.375 51 24.5 51 27C51 29.5 50.125 31.625 48.375 33.375C46.625 35.125 44.5 36 42 36ZM42 31.5C43.3 31.5 44.375 31.0625 45.225 30.1875C46.075 29.3125 46.5 28.25 46.5 27C46.5 25.7 46.075 24.625 45.225 23.775C44.375 22.925 43.3 22.5 42 22.5C40.75 22.5 39.6875 22.925 38.8125 23.775C37.9375 24.625 37.5 25.7 37.5 27C37.5 28.25 37.9375 29.3125 38.8125 30.1875C39.6875 31.0625 40.75 31.5 42 31.5Z" fill="#F7654A"/>
</svg>
