<svg width="60" height="60" viewBox="0 0 60 60" fill="none" xmlns="http://www.w3.org/2000/svg">
<path d="M3 15V3L15 9L3 15ZM48 15V3L60 9L48 15ZM27 12V0L39 6L27 12ZM27 60C23.2 59.9 19.663 59.588 16.389 59.064C13.113 58.538 10.263 57.875 7.839 57.075C5.413 56.275 3.5 55.35 2.1 54.3C0.7 53.25 0 52.15 0 51V24C0 22.75 0.788 21.587 2.364 20.511C3.938 19.437 6.075 18.487 8.775 17.661C11.475 16.837 14.65 16.187 18.3 15.711C21.95 15.237 25.85 15 30 15C34.15 15 38.05 15.237 41.7 15.711C45.35 16.187 48.525 16.837 51.225 17.661C53.925 18.487 56.062 19.437 57.636 20.511C59.212 21.587 60 22.75 60 24V51C60 52.15 59.3 53.25 57.9 54.3C56.5 55.35 54.588 56.275 52.164 57.075C49.738 57.875 46.888 58.538 43.614 59.064C40.338 59.588 36.8 59.9 33 60V48H27V60ZM30 27C34.85 27 39.038 26.712 42.564 26.136C46.088 25.562 48.9 24.9 51 24.15C51 23.9 49.1 23.312 45.3 22.386C41.5 21.462 36.4 21 30 21C23.6 21 18.5 21.462 14.7 22.386C10.9 23.312 9 23.9 9 24.15C11.1 24.9 13.913 25.562 17.439 26.136C20.963 26.712 25.15 27 30 27ZM21 53.55V42H39V53.55C43 53.15 46.275 52.562 48.825 51.786C51.375 51.012 53.1 50.325 54 49.725V29.4C51.25 30.5 47.8 31.375 43.65 32.025C39.5 32.675 34.95 33 30 33C25.05 33 20.5 32.675 16.35 32.025C12.2 31.375 8.75 30.5 6 29.4V49.725C6.9 50.325 8.625 51.012 11.175 51.786C13.725 52.562 17 53.15 21 53.55Z" fill="#F7654A"/>
</svg>
