<svg width="19" height="15" viewBox="0 0 19 15" fill="none" xmlns="http://www.w3.org/2000/svg">
<path d="M18.95 5.20312C18.6486 5.5346 18.3071 5.82589 17.9455 6.07701C16.268 7.21205 14.5805 8.35714 12.9433 9.54241C12.0995 10.1652 11.0549 10.9286 9.96 10.9286H9.94995H9.93991C8.84504 10.9286 7.8004 10.1652 6.95665 9.54241C5.31937 8.3471 3.63187 7.21205 1.96446 6.07701C1.59281 5.82589 1.25129 5.5346 0.949955 5.20312V13.1786C0.949955 14.0625 1.67317 14.7857 2.5571 14.7857H17.3428C18.2267 14.7857 18.95 14.0625 18.95 13.1786V5.20312ZM18.95 2.25C18.95 1.36607 18.2167 0.642857 17.3428 0.642857H2.5571C1.48232 0.642857 0.949955 1.48661 0.949955 2.47098C0.949955 3.38504 1.96446 4.52009 2.67763 5.00223C4.23455 6.08705 5.81156 7.17187 7.36848 8.26674C8.02138 8.71875 9.12629 9.64286 9.93991 9.64286H9.94995H9.96C10.7736 9.64286 11.8785 8.71875 12.5314 8.26674C14.0883 7.17187 15.6654 6.08705 17.2323 5.00223C18.1163 4.38951 18.95 3.375 18.95 2.25Z" fill="black"/>
</svg>
